<?xml version="1.0" standalone="no"?>
<!DOCTYPE svg PUBLIC "-//W3C//DTD SVG 20010904//EN"
 "http://www.w3.org/TR/2001/REC-SVG-20010904/DTD/svg10.dtd">
<svg version="1.0" xmlns="http://www.w3.org/2000/svg"
 width="1024.000000pt" height="1024.000000pt" viewBox="0 0 1024.000000 1024.000000"
 preserveAspectRatio="xMidYMid meet">

<g transform="translate(0.000000,1024.000000) scale(0.100000,-0.100000)"
fill="#000000" stroke="none">
<path d="M0 5120 l0 -5120 5120 0 5120 0 0 5120 0 5120 -5120 0 -5120 0 0
-5120z m5186 2374 c48 -23 74 -70 74 -134 0 -45 -4 -56 -33 -85 -87 -87 -227
-29 -227 94 0 54 22 97 63 121 39 24 78 25 123 4z m-356 -443 c70 -37 94 -125
52 -189 -31 -47 -21 -47 -697 -52 -638 -5 -640 -5 -682 -27 -45 -25 -74 -59
-91 -112 -9 -24 -12 -235 -12 -748 0 -783 3 -743 -60 -797 -41 -34 -105 -36
-145 -4 -56 44 -55 24 -55 826 0 802 -1 781 56 894 48 95 174 194 277 218 18
5 322 8 677 9 611 1 647 0 680 -18z m2002 -1 c120 -37 216 -121 271 -238 32
-67 32 -68 32 -229 l0 -163 -31 -31 c-62 -62 -167 -43 -200 36 -9 22 -14 70
-14 132 0 74 -5 108 -19 138 -22 47 -64 89 -104 104 -19 7 -243 11 -675 11
-488 1 -652 4 -669 13 -32 18 -64 63 -69 99 -6 42 22 95 66 126 l33 22 657 0
c627 0 661 -1 722 -20z m-4003 -524 c56 -29 67 -102 22 -147 -24 -23 -38 -29
-74 -29 -38 0 -49 5 -71 31 -73 86 21 197 123 145z m4723 -15 c27 -24 33 -36
33 -71 0 -34 -6 -47 -28 -66 -41 -35 -100 -33 -138 5 -89 90 39 216 133 132z
m-3272 -11 c87 -16 151 -52 216 -119 l59 -62 650 -2 c643 -3 649 -3 664 18 50
65 122 124 177 145 126 49 281 24 377 -60 171 -151 180 -404 20 -550 -29 -27
-69 -54 -88 -61 -19 -7 -35 -17 -35 -23 0 -5 27 -37 60 -72 l60 -62 0 -534 0
-535 -128 -131 -128 -132 -485 0 -484 0 -263 270 c-145 149 -268 270 -273 270
-5 0 -9 -77 -9 -177 l0 -178 217 -217 218 -218 267 0 268 0 0 -560 0 -560
-1053 0 c-1146 0 -1117 -1 -1214 56 -56 32 -136 113 -169 170 -15 26 -36 76
-46 113 -17 60 -18 115 -18 681 l0 616 57 70 c31 38 143 166 248 284 392 443
725 828 725 839 0 5 -21 14 -47 20 -155 39 -256 175 -257 346 0 126 54 228
156 298 49 34 135 65 184 66 12 1 45 -4 74 -9z m2938 -477 c8 -11 12 -52 12
-115 l0 -98 134 0 c109 0 138 -3 150 -16 38 -38 27 -96 -22 -115 -14 -6 -71
-10 -127 -9 -55 1 -108 1 -117 1 -16 -1 -18 -12 -18 -95 0 -100 -7 -117 -51
-131 -14 -5 -31 0 -48 12 -24 19 -26 26 -29 115 l-3 96 -114 3 c-126 4 -140
11 -151 66 -5 24 -1 36 15 52 19 19 32 21 136 21 l115 0 0 104 c0 97 2 106 23
121 26 19 76 13 95 -12z m-4378 -169 c38 -23 60 -64 60 -114 0 -94 -116 -146
-189 -84 -41 34 -57 91 -37 137 29 70 104 97 166 61z m4329 -822 c100 -61 141
-203 89 -302 -48 -90 -161 -143 -251 -119 -141 38 -215 189 -156 319 31 70 73
107 149 131 44 14 121 1 169 -29z m-4324 -96 c47 -20 75 -69 75 -129 0 -42 -5
-54 -34 -83 -33 -33 -54 -39 -116 -34 -79 6 -125 112 -85 191 18 34 69 69 103
69 12 0 38 -6 57 -14z m4844 -12 c85 -72 46 -197 -66 -210 -49 -6 -93 21 -117
71 -52 110 90 218 183 139z m-597 -701 c47 -43 48 -48 48 -475 0 -309 -3 -415
-14 -454 -47 -177 -199 -311 -378 -334 -104 -13 -723 -13 -772 1 -104 29 -132
141 -55 215 l30 29 392 5 c306 4 397 8 417 19 53 29 91 64 110 101 19 37 20
60 20 417 0 219 4 393 10 414 24 87 128 120 192 62z m-4255 -43 c39 -23 60
-83 46 -126 -11 -34 -66 -74 -100 -74 -85 0 -136 100 -86 168 39 53 88 64 140
32z m4704 0 c25 -14 49 -62 49 -97 0 -96 -140 -132 -190 -50 -28 46 -25 81 11
122 26 29 38 35 71 35 21 0 48 -5 59 -10z m-1187 -111 c24 -19 26 -27 26 -92
0 -123 -6 -117 126 -117 105 0 114 -1 128 -22 17 -24 21 -65 8 -85 -14 -22
-66 -35 -132 -32 -36 1 -80 2 -97 1 l-33 -2 0 -85 c0 -94 -16 -125 -64 -125
-45 0 -66 42 -66 130 l0 78 -111 4 c-102 3 -112 5 -130 27 -23 28 -24 59 -3
89 14 21 23 22 130 22 l114 0 0 93 c0 93 8 119 40 130 27 10 37 7 64 -14z
m-3527 -341 c29 -27 30 -61 2 -87 -35 -33 -59 -33 -91 0 -22 22 -28 34 -23 51
18 59 70 75 112 36z m4708 -3 c31 -30 32 -56 3 -82 -37 -32 -55 -34 -84 -10
-31 27 -35 68 -9 97 24 27 61 25 90 -5z"/>
<path d="M4941 5708 c-56 -29 -82 -64 -88 -119 -6 -52 21 -99 76 -136 113 -76
256 63 196 191 -36 75 -112 101 -184 64z"/>
<path d="M6000 5719 c-118 -49 -134 -204 -28 -269 123 -75 265 64 202 196 -30
64 -113 99 -174 73z"/>
<path d="M5560 5012 l0 -147 165 -165 166 -165 159 163 160 164 0 149 0 149
-325 0 -325 0 0 -148z"/>
<path d="M3594 4526 c-43 -19 -64 -53 -64 -101 0 -47 19 -79 60 -100 48 -25
78 -19 121 24 29 29 39 47 39 71 0 44 -34 96 -72 109 -39 14 -46 13 -84 -3z"/>
<path d="M4083 4525 c-42 -18 -68 -70 -59 -118 8 -43 65 -97 102 -97 33 0 79
24 98 52 36 51 9 139 -49 164 -42 17 -51 17 -92 -1z"/>
<path d="M4337 4020 c-80 -24 -137 -108 -137 -201 0 -108 93 -199 204 -199
136 0 241 130 207 256 -13 49 -69 116 -115 138 -36 17 -112 20 -159 6z"/>
<path d="M3639 3962 c-58 -52 -38 -147 38 -178 45 -19 83 -11 119 27 23 24 29
39 29 75 0 39 -5 50 -33 75 -45 40 -108 41 -153 1z"/>
<path d="M3830 3497 c-124 -42 -60 -244 67 -213 41 11 83 62 83 103 0 86 -69
137 -150 110z"/>
<path d="M4985 3503 c-90 -24 -109 -134 -34 -198 41 -34 88 -33 129 2 42 35
53 65 40 112 -16 62 -76 99 -135 84z"/>
<path d="M7011 4894 c-41 -34 -42 -75 -2 -115 36 -35 64 -37 96 -4 42 41 31
105 -22 133 -31 17 -37 15 -72 -14z"/>
</g>
</svg>
