<?xml version="1.0" standalone="no"?>
<!DOCTYPE svg PUBLIC "-//W3C//DTD SVG 20010904//EN"
 "http://www.w3.org/TR/2001/REC-SVG-20010904/DTD/svg10.dtd">
<svg version="1.0" xmlns="http://www.w3.org/2000/svg"
 width="1024.000000pt" height="1024.000000pt" viewBox="0 0 1024.000000 1024.000000"
 preserveAspectRatio="xMidYMid meet">

<g transform="translate(0.000000,1024.000000) scale(0.100000,-0.100000)"
fill="#000000" stroke="none">
<path d="M0 5120 l0 -5120 5120 0 5120 0 0 5120 0 5120 -5120 0 -5120 0 0
-5120z m5640 2805 c475 -74 908 -249 1275 -515 532 -386 893 -886 1094 -1515
91 -284 126 -544 118 -880 -6 -236 -22 -379 -67 -570 -207 -891 -819 -1638
-1632 -1994 -234 -103 -574 -203 -771 -226 l-57 -7 18 38 c86 185 262 504 406
734 96 154 259 385 434 615 59 78 121 168 137 200 27 54 30 69 30 155 0 80 -4
103 -24 144 -39 79 -117 163 -225 243 -225 166 -545 283 -820 300 l-109 6 49
41 c255 210 460 477 549 712 14 38 23 74 21 81 -3 7 -2 13 3 13 12 0 33 114
22 118 -5 2 -7 22 -4 45 5 35 3 40 -8 30 -7 -7 -21 -13 -31 -13 -16 0 -16 3
-6 20 15 23 4 37 -16 21 -11 -10 -21 -9 -45 3 -16 9 -37 16 -45 16 -8 0 -17 6
-19 13 -3 6 -6 -1 -6 -16 -1 -31 -21 -28 -21 4 0 10 -4 19 -10 19 -5 0 -10 -7
-10 -15 0 -8 -4 -15 -10 -15 -5 0 -10 6 -10 14 0 8 -9 18 -20 21 -15 5 -20 15
-20 43 -1 81 -61 289 -81 277 -5 -4 -6 1 -3 9 7 18 -36 97 -48 90 -5 -3 -8 0
-7 7 3 19 -11 49 -23 49 -5 0 -7 -10 -3 -22 6 -21 5 -22 -8 -5 -8 9 -17 17
-21 17 -12 0 -6 -38 7 -43 6 -2 9 -8 5 -12 -4 -4 -15 6 -25 24 -13 22 -28 33
-53 37 -19 4 -45 14 -58 22 -26 17 -46 21 -149 29 -49 4 -77 2 -87 -6 -11 -9
-17 -8 -30 4 -12 12 -20 13 -35 5 -26 -13 -41 -10 -63 15 -9 11 -17 16 -18 12
0 -5 -12 0 -27 11 -44 31 -182 98 -248 120 -226 76 -405 58 -590 -58 -127 -81
-277 -271 -362 -460 -47 -104 -49 -108 -70 -169 l-18 -53 -13 28 -13 29 6 -27
c2 -14 7 -34 10 -45 3 -10 -2 -3 -10 15 -10 21 -21 32 -30 29 -7 -3 -16 1 -19
9 -3 8 -15 14 -26 14 -12 0 -31 5 -43 12 -12 7 -35 13 -52 15 -105 9 -137 14
-156 24 -12 6 -38 9 -58 6 -34 -6 -35 -5 -16 9 19 15 19 15 -10 13 -16 -2 -50
6 -75 17 -25 11 -65 26 -90 34 -25 8 -48 19 -52 25 -4 5 -20 11 -35 11 -41 3
-64 9 -71 21 -4 5 -24 16 -44 22 -21 7 -38 17 -38 22 0 5 -9 9 -19 9 -11 0
-22 4 -25 9 -4 5 -31 17 -61 26 -31 10 -55 24 -55 31 0 8 -9 14 -19 14 -11 0
-23 5 -27 12 -5 7 -3 8 6 3 9 -5 11 -4 6 3 -4 7 -12 12 -17 12 -6 0 -25 11
-43 25 -18 14 -40 25 -48 25 -9 0 -18 7 -22 15 -3 8 -9 15 -13 14 -9 -2 -73
12 -73 16 0 1 5 17 11 34 9 25 14 29 21 19 6 -8 7 -4 3 13 -4 16 -1 31 7 40 8
8 15 17 16 21 8 26 15 37 22 33 5 -3 6 3 4 12 -9 36 193 345 341 522 98 117
290 307 405 400 203 164 523 353 744 441 241 95 499 160 776 196 145 18 597
12 740 -11z m-444 -1664 c-3 -5 1 -14 9 -21 8 -7 15 -9 15 -5 0 5 9 0 19 -9
11 -10 26 -15 33 -11 7 3 4 -1 -6 -9 -18 -14 -15 -21 7 -17 5 1 5 -4 2 -10 -5
-7 -23 5 -51 32 -37 36 -48 59 -28 59 3 0 3 -4 0 -9z m-451 -71 c-3 -5 -12
-10 -19 -10 -40 0 -157 -98 -356 -299 -147 -150 -240 -235 -293 -270 -43 -29
-81 -51 -83 -48 -3 2 9 29 27 58 149 254 349 462 508 528 87 37 230 64 216 41z
m570 -60 l20 -25 -22 19 c-13 11 -23 24 -23 29 0 6 1 8 3 6 1 -2 11 -15 22
-29z m-271 -51 l27 -21 -62 -66 c-79 -84 -190 -224 -309 -388 -204 -281 -344
-430 -500 -532 -177 -116 -333 -162 -567 -169 -299 -9 -432 26 -1008 267 -344
144 -305 121 -305 179 0 27 3 56 6 64 6 16 -5 20 480 -181 391 -163 492 -190
729 -199 178 -6 280 7 400 52 247 93 371 203 648 571 140 186 244 303 340 381
43 35 81 63 86 63 5 0 20 -9 35 -21z m-2387 -214 c108 -53 203 -93 210 -90 8
2 12 1 9 -4 -3 -5 11 -16 32 -24 20 -9 75 -32 122 -52 227 -96 380 -128 586
-123 141 3 145 2 140 -17 -2 -11 -8 -37 -12 -58 -9 -54 -31 -60 -199 -54 -211
7 -352 44 -635 165 -85 36 -439 200 -482 223 -16 8 -16 13 -1 62 16 54 21 67
28 67 2 0 93 -43 202 -95z m3170 -142 c-3 -10 -5 -4 -5 12 0 17 2 24 5 18 2
-7 2 -21 0 -30z m-792 -139 c-3 -27 -25 -59 -25 -36 0 19 4 27 14 24 5 -2 6 4
3 12 -5 12 0 26 9 26 1 0 1 -12 -1 -26z m45 -49 c0 -7 -6 -16 -12 -19 -7 -4 1
-4 18 -2 28 4 34 1 48 -27 15 -31 16 -31 17 -7 1 14 1 39 0 55 -1 26 0 27 9
12 15 -23 7 -56 -45 -197 -76 -206 -194 -432 -331 -632 -212 -311 -478 -524
-783 -627 -42 -15 -81 -37 -113 -66 -53 -47 -118 -76 -216 -95 -72 -15 -349
-8 -420 10 -23 5 -82 14 -130 20 -48 5 -188 25 -312 44 -124 20 -246 36 -272
36 l-46 0 -33 98 c-17 53 -34 103 -37 109 -6 18 42 8 155 -33 95 -34 268 -78
431 -110 82 -16 94 -17 103 -4 9 12 10 12 5 -2 -4 -15 1 -18 27 -19 18 -1 41
-3 52 -5 35 -5 141 -12 124 -7 -11 3 -15 11 -12 24 3 10 0 19 -6 19 -5 0 -8
-7 -5 -15 8 -20 -11 -19 -32 2 -15 16 -15 17 1 23 14 5 10 11 -23 27 -23 11
-42 17 -42 12 0 -5 -7 -9 -15 -9 -8 0 -15 4 -15 9 0 5 7 11 15 15 21 8 19 24
-5 31 -24 8 -27 35 -3 35 9 0 13 3 9 8 -4 4 -18 7 -29 7 -17 0 -22 6 -22 25 0
15 -5 24 -12 22 -16 -3 -17 20 -2 35 9 9 7 11 -7 7 -26 -7 -57 17 -49 38 4 9
14 19 23 21 12 3 11 5 -5 6 -12 0 -24 5 -28 10 -3 6 -17 6 -35 -1 -16 -5 -35
-8 -42 -5 -7 3 -3 6 10 6 30 1 28 17 -3 25 -14 4 -25 11 -25 17 0 8 5 8 15 -1
8 -6 20 -10 27 -7 18 7 -36 27 -75 28 -26 0 -28 2 -12 8 16 6 12 9 -20 15 -22
4 -53 14 -70 21 -16 7 -46 18 -65 25 -19 7 -75 30 -125 51 -49 21 -137 56
-195 79 -57 22 -108 46 -112 53 -4 7 -8 31 -8 55 0 53 -36 61 320 -78 434
-170 579 -215 790 -246 164 -23 380 -16 511 19 330 87 577 310 882 797 43 69
83 124 88 122 6 -1 8 2 4 7 -8 14 25 62 38 54 6 -4 7 -1 2 6 -4 7 2 22 16 37
12 13 19 24 15 24 -4 0 -4 5 -1 10 5 8 11 8 20 0 9 -7 16 -6 24 4 14 16 51 10
51 -9z m65 -14 c3 -5 1 -12 -5 -16 -5 -3 -10 1 -10 9 0 18 6 21 15 7z m-199
-1526 c-11 -8 -25 -15 -30 -15 -6 1 0 7 14 15 32 19 40 18 16 0z m-61 -35 c-8
-13 -3 -13 32 0 26 9 27 9 9 -5 -18 -14 -52 -20 -85 -16 -7 2 -10 -2 -7 -8 4
-6 21 -8 39 -6 18 3 26 3 20 -1 -7 -3 -13 -15 -13 -27 0 -26 62 -72 85 -63 9
3 13 2 10 -4 -3 -6 -1 -10 5 -10 7 0 5 -7 -4 -16 -21 -21 -20 -27 3 -15 10 6
21 8 23 5 9 -9 77 29 71 39 -3 6 -2 7 4 4 5 -3 46 10 91 29 44 19 125 47 179
61 88 24 116 27 268 27 183 1 297 -16 381 -56 50 -23 53 -30 22 -51 -114 -78
-197 -220 -275 -472 -19 -60 -73 -247 -119 -415 -118 -425 -194 -688 -212
-734 l-15 -39 -211 6 c-300 8 -559 51 -826 138 -111 37 -123 45 -81 54 50 11
181 63 266 107 346 176 577 477 750 978 74 211 100 263 168 328 31 28 50 52
42 52 -36 0 -240 -76 -324 -121 -137 -73 -276 -169 -265 -183 2 -3 1 -4 -2 -1
-9 6 -94 -53 -94 -65 0 -6 -4 -9 -9 -8 -4 2 -27 -12 -49 -30 -30 -23 -39 -37
-35 -50 6 -15 4 -15 -9 -4 -14 11 -20 11 -37 0 -12 -7 -21 -17 -21 -22 0 -5 9
-1 20 9 19 17 21 17 40 0 18 -16 18 -18 2 -41 -9 -13 -22 -24 -28 -24 -18 0
-26 -30 -9 -30 8 0 15 -2 15 -4 0 -2 3 -12 6 -21 5 -13 2 -15 -20 -9 -22 5
-26 3 -26 -15 0 -19 3 -20 20 -11 16 8 18 8 14 -4 -3 -8 -17 -17 -32 -21 -25
-6 -26 -8 -9 -20 15 -10 15 -14 3 -18 -8 -3 -16 -1 -18 5 -6 18 -28 -1 -28
-23 0 -13 -7 -19 -22 -20 -13 0 -17 -3 -10 -6 6 -2 12 -9 12 -14 0 -14 -28
-11 -33 4 -4 8 -6 9 -6 0 -1 -6 5 -18 13 -26 13 -13 9 -21 -30 -63 -40 -43
-43 -49 -27 -56 12 -6 6 -7 -17 -4 -19 3 -29 2 -22 -1 22 -9 12 -33 -23 -54
-42 -25 -46 -43 -7 -35 25 5 26 5 5 -6 -13 -6 -23 -15 -23 -20 0 -4 -24 -9
-52 -9 -49 -2 -51 -2 -18 -9 l35 -7 -32 -2 c-17 0 -33 -6 -35 -13 -3 -7 -21
-12 -41 -12 -19 0 -34 -4 -31 -8 3 -4 -2 -5 -10 -2 -9 4 -16 1 -16 -6 0 -9
-10 -11 -30 -6 -17 3 -29 2 -26 -3 18 -29 -370 -45 -547 -21 -92 12 -101 15
-170 63 -142 99 -309 254 -482 447 -91 102 -315 424 -303 435 2 2 80 -16 173
-40 552 -143 902 -162 1270 -69 141 36 364 139 525 244 102 66 131 81 143 73
6 -4 7 -1 2 7 -6 10 -4 12 9 7 9 -4 15 -3 12 2 -6 9 37 42 60 45 7 1 17 5 20
9 11 10 16 8 9 -3z m135 -140 c0 -5 -2 -10 -4 -10 -3 0 -8 5 -11 10 -3 6 -1
10 4 10 6 0 11 -4 11 -10z m-144 -356 c1 -9 -1 -13 -4 -9 -4 4 -7 10 -7 13 0
4 -4 14 -9 22 -7 12 -6 13 4 3 8 -7 15 -20 16 -29z m-30 8 c-3 -3 -1 -11 4
-17 8 -9 4 -11 -16 -7 -22 4 -24 6 -10 14 9 5 13 14 10 20 -5 7 -2 8 5 4 7 -5
10 -11 7 -14z m-38 -31 c11 -7 11 -9 -1 -14 -16 -6 -27 0 -27 15 0 10 11 10
28 -1z m-33 -25 c12 -12 12 -16 -1 -27 -12 -10 -12 -14 -2 -22 9 -6 8 -7 -5
-3 -10 3 -23 6 -29 6 -6 0 0 9 13 21 l24 20 -24 -7 c-21 -6 -22 -4 -10 9 17
20 17 20 34 3z m-215 -425 c0 -5 -6 -14 -14 -20 -12 -10 -13 -8 -9 8 5 21 23
30 23 12z m-60 -121 c8 -5 11 -10 5 -10 -5 0 -17 5 -25 10 -8 5 -10 10 -5 10
6 0 17 -5 25 -10z"/>
<path d="M5800 7120 c0 -5 5 -10 11 -10 5 0 7 5 4 10 -3 6 -8 10 -11 10 -2 0
-4 -4 -4 -10z"/>
<path d="M5773 7063 c-4 -21 -8 -77 -8 -124 0 -76 4 -93 33 -151 85 -172 276
-263 455 -214 77 21 165 80 190 126 10 19 12 27 5 17 -7 -10 -21 -28 -30 -39
-18 -21 -18 -21 -18 10 0 27 -6 34 -47 52 -27 12 -63 24 -80 27 -18 3 -33 9
-33 13 0 4 -17 11 -37 15 -21 4 -43 15 -51 26 -7 10 -22 19 -32 19 -10 0 -22
5 -25 10 -4 6 -10 8 -15 5 -5 -3 -13 3 -19 12 -9 15 -12 16 -20 3 -8 -12 -13
-10 -31 13 -12 15 -29 27 -39 27 -9 0 -21 4 -27 10 -5 5 -24 10 -42 12 -17 1
-33 6 -33 10 -1 4 -2 14 -3 21 0 6 -11 16 -23 22 -12 5 -25 21 -29 35 l-7 25
-7 -25 c-8 -25 -8 -25 -11 5 -1 17 -1 40 0 53 3 35 -7 26 -16 -15z"/>
<path d="M6402 6745 c0 -11 3 -29 7 -40 8 -19 8 -19 19 2 17 31 15 53 -3 30
-13 -18 -14 -17 -18 5 -3 18 -4 19 -5 3z"/>
<path d="M4890 6459 c11 -8 8 -9 -15 -5 -24 5 -26 4 -13 -4 10 -6 30 -7 45 -4
25 7 25 8 8 15 -29 11 -42 10 -25 -2z"/>
<path d="M4930 6432 c0 -11 73 -52 93 -52 8 0 17 -6 19 -12 3 -9 10 -7 23 6
19 18 19 18 -4 11 -14 -4 -21 -3 -18 2 4 5 -8 10 -24 10 -17 0 -34 4 -37 10
-10 15 -52 35 -52 25z"/>
<path d="M5081 6367 c-8 -11 -6 -18 8 -31 17 -15 19 -15 25 -1 9 24 7 32 -4
15 -5 -8 -12 -11 -16 -7 -4 3 -1 13 6 22 7 8 8 15 2 15 -5 0 -15 -6 -21 -13z"/>
<path d="M5130 6314 c0 -10 41 -23 54 -18 27 10 18 20 -19 21 -19 0 -35 -1
-35 -3z"/>
<path d="M7318 6179 c-48 -25 -66 -60 -84 -167 -38 -222 -103 -346 -249 -480
-63 -57 -71 -62 -114 -62 -46 0 -69 5 -145 33 -46 17 -72 12 -79 -14 -3 -10
-13 -19 -24 -19 -15 0 -15 2 -3 10 17 11 13 15 -20 24 -14 3 -19 3 -12 0 6 -3
12 -10 12 -15 0 -5 -9 -4 -19 3 -11 7 -17 16 -14 22 3 5 1 6 -5 2 -14 -8 -113
62 -164 116 -44 46 -104 135 -135 198 l-22 45 -1 -120 c0 -66 -7 -153 -14
-194 l-13 -75 40 -80 c58 -116 163 -220 277 -274 145 -69 271 -78 405 -27 217
81 424 339 530 659 79 238 66 377 -39 421 -46 19 -63 18 -108 -6z m-618 -689
c0 -5 -6 -10 -14 -10 -8 0 -16 -6 -19 -12 -2 -7 -8 -10 -12 -5 -5 4 0 14 11
22 23 17 34 19 34 5z m55 -10 c3 -5 1 -10 -4 -10 -6 0 -11 5 -11 10 0 6 2 10
4 10 3 0 8 -4 11 -10z"/>
<path d="M6102 5720 c0 -14 2 -19 5 -12 2 6 2 18 0 25 -3 6 -5 1 -5 -13z"/>
<path d="M6101 5654 c0 -11 3 -14 6 -6 3 7 2 16 -1 19 -3 4 -6 -2 -5 -13z"/>
<path d="M5220 6226 c0 -2 8 -10 18 -17 15 -13 16 -12 3 4 -13 16 -21 21 -21
13z"/>
<path d="M4997 5532 c2 -3 -4 -17 -13 -31 l-16 -26 23 22 c16 15 20 26 13 32
-6 5 -9 6 -7 3z"/>
<path d="M5126 5435 c-9 -26 -7 -32 5 -12 6 10 9 21 6 23 -2 3 -7 -2 -11 -11z"/>
<path d="M3065 4430 c3 -5 13 -10 21 -10 8 0 12 5 9 10 -3 6 -13 10 -21 10 -8
0 -12 -4 -9 -10z"/>
<path d="M4706 3852 c-3 -5 1 -9 9 -9 8 0 12 4 9 9 -3 4 -7 8 -9 8 -2 0 -6 -4
-9 -8z"/>
<path d="M4930 3816 c0 -9 30 -14 35 -6 4 6 -3 10 -14 10 -12 0 -21 -2 -21 -4z"/>
<path d="M4964 3764 c-18 -14 -18 -15 4 -4 12 6 22 13 22 15 0 8 -5 6 -26 -11z"/>
<path d="M4889 3748 c-5 -18 -6 -38 -1 -34 7 8 12 36 6 36 -2 0 -4 -1 -5 -2z"/>
<path d="M4820 3670 c-9 -6 -10 -10 -3 -10 6 0 15 5 18 10 8 12 4 12 -15 0z"/>
<path d="M4610 3210 c0 -5 7 -10 16 -10 8 0 12 5 9 10 -3 6 -10 10 -16 10 -5
0 -9 -4 -9 -10z"/>
<path d="M4530 3060 c0 -5 5 -10 10 -10 6 0 10 5 10 10 0 6 -4 10 -10 10 -5 0
-10 -4 -10 -10z"/>
<path d="M4490 3025 c-7 -9 -11 -17 -8 -20 2 -2 12 4 21 15 9 11 13 20 8 20
-5 0 -14 -7 -21 -15z"/>
<path d="M4416 2925 c-11 -8 -16 -18 -11 -22 4 -5 10 -2 12 5 3 6 11 12 18 12
8 0 17 5 20 10 9 15 -17 11 -39 -5z"/>
<path d="M4336 2869 c3 -6 0 -15 -7 -20 -10 -6 -8 -9 9 -9 20 0 21 3 12 20 -6
11 -13 20 -16 20 -3 0 -2 -5 2 -11z"/>
<path d="M4385 2861 l20 -8 -20 -5 c-18 -5 -17 -6 3 -7 29 -1 25 23 -4 26 -18
3 -18 2 1 -6z"/>
</g>
</svg>
